<svg width="330" height="330" viewBox="0 0 330 330" fill="none" xmlns="http://www.w3.org/2000/svg">
<circle cx="165" cy="165" r="165" fill="white"/>
<path d="M165 0C256.127 0 330 73.873 330 165C330 256.127 256.127 330 165 330C73.873 330 0 256.127 0 165C0 73.873 73.873 0 165 0ZM48.5059 80.9336C41.6024 80.9337 36.0059 86.5302 36.0059 93.4336C36.0059 100.337 41.6024 105.934 48.5059 105.934H61.8496V145.542H48.5059C41.6024 145.542 36.006 151.139 36.0059 158.042C36.0059 164.945 41.6024 170.542 48.5059 170.542H164.801C168.34 170.542 171.734 171.948 174.236 174.45C176.739 176.953 178.144 180.347 178.145 183.886V223.072H175.004C173.124 217.622 170.026 212.613 165.872 208.459C158.681 201.268 148.929 197.229 138.76 197.229C128.591 197.229 118.837 201.268 111.646 208.459C107.493 212.613 104.393 217.622 102.514 223.072H48.5059C41.6024 223.072 36.0059 228.669 36.0059 235.572C36.0059 242.476 41.6024 248.072 48.5059 248.072H102.514C104.393 253.522 107.493 258.531 111.646 262.685C118.837 269.875 128.59 273.915 138.76 273.915C148.929 273.915 158.681 269.875 165.872 262.685C170.025 258.531 173.124 253.522 175.004 248.072H190.645C197.548 248.072 203.144 242.476 203.145 235.572V183.886C203.144 173.717 199.105 163.963 191.914 156.772C184.723 149.582 174.97 145.542 164.801 145.542H157.888L109.953 85.625C107.581 82.66 103.99 80.9336 100.192 80.9336H48.5059ZM138.76 222.229C142.298 222.229 145.692 223.635 148.194 226.137C150.697 228.639 152.102 232.034 152.103 235.572C152.102 239.111 150.696 242.505 148.194 245.007C145.692 247.509 142.298 248.915 138.76 248.915C135.221 248.915 131.827 247.509 129.324 245.007C127.201 242.884 125.867 240.12 125.512 237.17C125.578 236.647 125.614 236.114 125.614 235.572C125.614 235.031 125.579 234.497 125.512 233.974C125.868 231.024 127.202 228.259 129.324 226.137C131.827 223.635 135.221 222.229 138.76 222.229ZM244.478 207.125C239.58 202.471 231.836 202.546 227.031 207.351C222.226 212.156 222.151 219.9 226.806 224.797L227.031 225.028L246.414 244.411L246.645 244.636C251.542 249.291 259.286 249.216 264.092 244.411C268.897 239.606 268.972 231.861 264.316 226.964L264.092 226.733L244.709 207.351L244.478 207.125ZM255.253 158.464C248.349 158.464 242.753 164.06 242.753 170.964C242.753 177.867 248.349 183.464 255.253 183.464H281.097L281.419 183.46C288.173 183.289 293.597 177.76 293.597 170.964C293.597 164.168 288.173 158.639 281.419 158.468L281.097 158.464H255.253ZM125.871 145.542H86.8496V105.934H94.1846L125.871 145.542ZM264.092 97.5166C259.21 92.6352 251.296 92.6352 246.414 97.5166L227.031 116.899C222.15 121.781 222.15 129.696 227.031 134.577C231.913 139.458 239.827 139.458 244.709 134.577L264.092 115.194C268.973 110.313 268.973 102.398 264.092 97.5166ZM190.645 80.9336C183.741 80.9336 178.145 86.5301 178.145 93.4336V119.277C178.145 126.181 183.741 131.777 190.645 131.777C197.548 131.777 203.144 126.181 203.145 119.277V93.4336C203.144 86.5301 197.548 80.9336 190.645 80.9336Z" fill="#FFA05C"/>
</svg>
